<svg width="24" height="24" viewBox="0 0 24 24" fill="none" xmlns="http://www.w3.org/2000/svg">
<path d="M18.5454 15.2727V13.0909H16.3635V15.2727H18.5454ZM8.72718 15.2727V13.0909H6.54537V15.2727H8.72718ZM18.3926 9.52691C21.4035 11.7447 22.909 14.7513 22.909 18.5455H1.09082C1.09082 14.6924 2.569 11.6869 5.52427 9.52691L3.13627 7.07454C2.68137 6.60763 2.68137 6.16909 3.13627 5.76109C3.59118 5.352 4.01664 5.352 4.41482 5.76109L7.14209 8.56254C8.61809 7.74545 10.2381 7.33745 11.9999 7.33745C13.7039 7.33745 15.2945 7.74545 16.7726 8.56254L19.4999 5.76109C19.9548 5.352 20.3803 5.352 20.7785 5.76109C21.1755 6.16909 21.1755 6.60763 20.7785 7.07345L18.3926 9.52691Z" fill="#73D22D"/>
</svg>
