<svg width="20" height="24" viewBox="0 0 20 24" fill="none" xmlns="http://www.w3.org/2000/svg">
<path d="M17.52 15.696C18.176 16.624 18.928 17.224 19.776 17.496C19.408 18.632 18.824 19.816 18.024 21.048C16.792 22.904 15.576 23.832 14.376 23.832C13.928 23.832 13.264 23.68 12.384 23.376C11.568 23.072 10.856 22.92 10.248 22.92C9.64 22.92 8.968 23.08 8.232 23.4C7.464 23.704 6.832 23.856 6.336 23.856C4.896 23.856 3.48 22.632 2.088 20.184C0.696 17.768 0 15.392 0 13.056C0 10.896 0.528 9.128 1.584 7.752C2.672 6.376 4.016 5.688 5.616 5.688C5.968 5.688 6.36 5.732 6.792 5.82C7.224 5.908 7.672 6.072 8.136 6.312C8.632 6.584 9.04 6.772 9.36 6.876C9.68 6.98 9.928 7.032 10.104 7.032C10.312 7.032 10.632 6.984 11.064 6.888C11.496 6.792 11.928 6.616 12.36 6.36C12.824 6.104 13.224 5.912 13.56 5.784C13.896 5.656 14.24 5.592 14.592 5.592C15.712 5.592 16.72 5.896 17.616 6.504C18.096 6.824 18.584 7.296 19.08 7.92C18.344 8.56 17.808 9.12 17.472 9.6C16.848 10.496 16.536 11.472 16.536 12.528C16.536 13.696 16.864 14.752 17.52 15.696ZM12.696 4.488C12.136 5.016 11.624 5.36 11.16 5.52C11 5.568 10.796 5.612 10.548 5.652C10.3 5.692 10.016 5.728 9.696 5.76C9.712 4.352 10.08 3.136 10.8 2.112C11.52 1.088 12.704 0.384 14.352 0C14.384 0.16 14.408 0.272 14.424 0.336V0.6C14.424 1.176 14.288 1.824 14.016 2.544C13.728 3.248 13.288 3.896 12.696 4.488Z" fill="white"/>
</svg>
