<svg width="40" height="40" viewBox="0 0 40 40" fill="none" xmlns="http://www.w3.org/2000/svg">
<rect width="40" height="40" rx="20" fill="#959A9F"/>
<g clip-path="url(#clip0_10714_52894)">
<path d="M18.8802 22.1198C18.6202 22.1198 18.3702 22.0198 18.1702 21.8298C16.4302 20.0898 16.2202 17.3898 17.6702 15.4098C17.7702 15.2498 17.9502 15.0398 18.1702 14.8198L21.5302 11.4598C22.4702 10.5198 23.7102 10.0098 25.0402 10.0098C26.3702 10.0098 27.6102 10.5298 28.5502 11.4598C30.4802 13.3898 30.4802 16.5398 28.5502 18.4698L26.7102 20.3098C26.3202 20.6998 25.6902 20.6998 25.3002 20.3098C24.9102 19.9198 24.9102 19.2898 25.3002 18.8998L27.1402 17.0598C28.2902 15.9098 28.2902 14.0298 27.1402 12.8698C26.0202 11.7498 24.0702 11.7498 22.9602 12.8698L19.6002 16.2298C19.4802 16.3498 19.3902 16.4498 19.3302 16.5498C18.4302 17.7698 18.5602 19.3798 19.6002 20.4198C19.9902 20.8098 19.9902 21.4398 19.6002 21.8298C19.4002 22.0298 19.1502 22.1198 18.8902 22.1198H18.8802ZM18.4602 28.5498L21.8202 25.1898C22.3602 24.6498 22.7602 24.0098 22.9802 23.3398C23.6202 21.5498 23.1602 19.5298 21.8202 18.1798C21.4302 17.7898 20.8002 17.7898 20.4102 18.1798C20.0202 18.5698 20.0202 19.1998 20.4102 19.5898C21.2302 20.4098 21.4902 21.5898 21.1002 22.6898C20.9702 23.0798 20.7302 23.4598 20.4102 23.7798L17.0502 27.1398C15.9302 28.2598 13.9802 28.2598 12.8702 27.1398C11.7202 25.9898 11.7202 24.1098 12.8702 22.9498L14.7102 21.1098C15.1002 20.7198 15.1002 20.0898 14.7102 19.6998C14.3202 19.3098 13.6902 19.3098 13.3002 19.6998L11.4602 21.5398C9.5302 23.4698 9.5302 26.6198 11.4602 28.5498C12.4002 29.4898 13.6402 29.9998 14.9702 29.9998C16.3002 29.9998 17.5402 29.4798 18.4802 28.5498H18.4602Z" fill="white"/>
</g>
<defs>
<clipPath id="clip0_10714_52894">
<rect width="19.99" height="20" fill="white" transform="translate(10 10)"/>
</clipPath>
</defs>
</svg>
