<svg width="40" height="40" viewBox="0 0 40 40" fill="none" xmlns="http://www.w3.org/2000/svg">
<circle cx="20" cy="20" r="20" fill="#3F80F7"/>
<path d="M11 11.5C11 11.8283 11.0647 12.1534 11.1903 12.4567C11.3159 12.76 11.5001 13.0356 11.7322 13.2678C11.9644 13.4999 12.24 13.6841 12.5433 13.8097C12.8466 13.9353 13.1717 14 13.5 14C13.8283 14 14.1534 13.9353 14.4567 13.8097C14.76 13.6841 15.0356 13.4999 15.2678 13.2678C15.4999 13.0356 15.6841 12.76 15.8097 12.4567C15.9353 12.1534 16 11.8283 16 11.5C16 10.837 15.7366 10.2011 15.2678 9.73223C14.7989 9.26339 14.163 9 13.5 9C12.837 9 12.2011 9.26339 11.7322 9.73223C11.2634 10.2011 11 10.837 11 11.5Z" fill="white"/>
<path d="M8.55417 30.9991C8.28208 30.9992 8.01474 30.9212 7.77889 30.7729C7.54305 30.6246 7.34697 30.4112 7.21028 30.154C7.07359 29.8968 7.00109 29.6049 7.00001 29.3075C6.99894 29.01 7.06934 28.7175 7.20417 28.4592L10.7443 21.6961C10.8805 21.4362 11.0771 21.2203 11.3141 21.0701C11.5512 20.92 11.8203 20.8409 12.0943 20.8409C12.3682 20.8409 12.6374 20.92 12.8744 21.0701C13.1115 21.2203 13.308 21.4362 13.4443 21.6961L17.2605 28.9871L24.4217 17.7293C24.565 17.5042 24.756 17.3203 24.9784 17.1933C25.2008 17.0663 25.4479 17 25.6988 17C25.9497 17 26.1969 17.0663 26.4192 17.1933C26.6416 17.3203 26.8326 17.5042 26.9759 17.7293L33.7213 28.3344C33.8837 28.589 33.979 28.8875 33.9969 29.1972C34.0148 29.507 33.9546 29.8162 33.8228 30.0911C33.6911 30.3661 33.4928 30.5962 33.2497 30.7565C33.0065 30.9167 32.7278 31.001 32.4438 31H8.55417V30.9991Z" fill="white"/>
</svg>
