<svg width="61" height="62" viewBox="0 0 61 62" fill="none" xmlns="http://www.w3.org/2000/svg">
<path opacity="0.1" d="M15 0H38H50.2667H55.6333H61V7.59494V15.1899V61.519H15V0Z" fill="white"/>
<path fill-rule="evenodd" clip-rule="evenodd" d="M61.0001 0H59.7596H58.5191H57.3671H55.6836H50.3672V10.6329H61.0001V2.62541V1.31271V0Z" fill="black"/>
<path d="M23.0254 22.7848H53.4051V25.8228H23.0254V22.7848Z" fill="black"/>
<path d="M23.0254 28.8607H53.4051V31.8987H23.0254V28.8607Z" fill="black"/>
<path d="M23.0254 34.9367H53.4051V37.9747H23.0254V34.9367Z" fill="black"/>
<path d="M50.3672 0L55.6836 5.31646L61.0001 10.6329H50.3672V0Z" fill="#4B4D4F"/>
<path fill-rule="evenodd" clip-rule="evenodd" d="M22.0253 45.5696C30.4145 45.5696 37.2152 38.7689 37.2152 30.3798C37.2152 21.9906 30.4145 15.1899 22.0253 15.1899C13.6362 15.1899 6.83545 21.9906 6.83545 30.3798C6.83545 38.7689 13.6362 45.5696 22.0253 45.5696ZM22.0253 41.7722C28.3172 41.7722 33.4177 36.6716 33.4177 30.3797C33.4177 24.0879 28.3172 18.9873 22.0253 18.9873C15.7335 18.9873 10.6329 24.0879 10.6329 30.3797C10.6329 36.6716 15.7335 41.7722 22.0253 41.7722Z" fill="#4B4D4F"/>
<rect x="11.2778" y="37.9747" width="3.79747" height="15.9494" transform="rotate(45 11.2778 37.9747)" fill="#4B4D4F"/>
</svg>
