<svg width="24" height="24" viewBox="0 0 24 24" fill="none" xmlns="http://www.w3.org/2000/svg">
<path d="M11.8201 11.52L2.58008 21.18C2.73439 21.6976 3.05094 22.152 3.48304 22.476C3.91515 22.8001 4.43995 22.9768 4.98008 22.98C5.46008 22.98 5.88008 22.86 6.24008 22.62L16.6801 16.68L11.8201 11.52Z" fill="#EA4335"/>
<path d="M21.1801 9.84L16.6801 7.26L11.6401 11.7L16.7401 16.68L21.2401 14.16C22.0201 13.74 22.5601 12.9 22.5601 12C22.5277 11.5537 22.3845 11.1224 22.1435 10.7453C21.9026 10.3682 21.5715 10.0571 21.1801 9.84Z" fill="#FBBC04"/>
<path d="M2.58002 2.82C2.52002 3 2.52002 3.24 2.52002 3.48V20.58C2.52002 20.82 2.52002 21 2.58002 21.24L12.18 11.82L2.58002 2.82Z" fill="#4285F4"/>
<path d="M11.8801 12L16.6801 7.26L6.30008 1.38C5.94008 1.14 5.46008 1.02 4.98008 1.02C3.84008 1.02 2.82008 1.8 2.58008 2.82L11.8801 12Z" fill="#34A853"/>
</svg>
