<svg width="123" height="32" viewBox="0 0 123 32" fill="none" xmlns="http://www.w3.org/2000/svg">
<path d="M29.8243 26.2364L28.3176 23.6983H6.66524L17.5083 4.93785L14.677 0H11.0234C10.2388 0.0017608 9.46876 0.211743 8.7919 0.608499C8.11505 1.00525 7.55564 1.57456 7.17082 2.25827L0.618472 13.8193C0.23749 14.4866 0.0371094 15.2417 0.0371094 16.0101C0.0371094 16.7785 0.23749 17.5337 0.618472 18.201L5.20579 26.2903L7.17082 29.7552C7.50764 30.3495 7.97746 30.8578 8.5435 31.2402C9.10955 31.6227 9.75644 31.8689 10.4335 31.9595C10.6278 31.9867 10.8238 32.0002 11.02 32H23.9798C24.7641 32.0004 25.5345 31.7929 26.2124 31.3986C26.8904 31.0042 27.4516 30.4372 27.839 29.7552L29.7906 26.2903L29.8243 26.2364Z" fill="url(#paint0_linear_10997_308)"/>
<path d="M28.317 23.6999H6.70508L6.79608 23.646L14.0495 19.2845C15.1685 18.5565 16.0112 18.1318 16.8032 17.9936C16.8212 17.992 16.8392 17.992 16.8572 17.9936L17.0122 17.9733L17.2819 17.9531H17.4437C17.5733 17.9567 17.7027 17.9668 17.8313 17.9835C18.6571 18.0947 19.5435 18.5059 20.7502 19.2036L28.2766 23.673L28.317 23.6999Z" fill="url(#paint1_linear_10997_308)"/>
<path d="M29.8236 26.2383L29.7865 26.3023L27.8316 29.7538C27.4458 30.4357 26.8859 31.0028 26.2089 31.3972C25.532 31.7917 24.7625 31.9992 23.979 31.9985H11.0193C10.8231 31.9987 10.6271 31.9852 10.4328 31.9581C9.75461 31.8681 9.10648 31.6223 8.53923 31.2399C7.97199 30.8574 7.50106 30.3487 7.16337 29.7538L5.20508 26.2922L6.7016 23.7036L6.77913 23.6564L14.046 19.2747C15.1684 18.5467 16.0077 18.1186 16.8031 17.9838C16.8211 17.9822 16.8391 17.9822 16.8571 17.9838L17.0121 17.9636L17.2818 17.9434H17.4435C17.5732 17.9469 17.7026 17.957 17.8312 17.9737C18.6569 18.0849 19.54 18.4995 20.7467 19.1938L28.2765 23.6733L28.3203 23.7003L29.8236 26.2383Z" fill="url(#paint2_linear_10997_308)"/>
<g opacity="0.5">
<path d="M20.7277 19.191C17.8695 17.5259 16.801 17.4754 14.027 19.282L6.68262 23.6974L14.027 20.2224C16.801 18.4124 17.8594 18.4764 20.7277 20.128L28.2979 23.7008L20.7277 19.191Z" fill="url(#paint3_linear_10997_308)"/>
</g>
<path d="M34.3844 18.201L29.7903 26.2903L29.8274 26.2262L28.3174 23.6983L17.5316 4.91426V4.93785L14.6768 0H23.9828C24.7678 0.00220649 25.5381 0.212344 26.2154 0.609024C26.8927 1.0057 27.4528 1.57476 27.8388 2.25827L34.3844 13.8193C34.7637 14.4871 34.9632 15.242 34.9632 16.0101C34.9632 16.7782 34.7637 17.5331 34.3844 18.201Z" fill="url(#paint4_linear_10997_308)"/>
<path d="M0.581362 18.201L5.17879 26.2903L5.14172 26.2262L6.64835 23.6882L17.4341 4.90415V4.92774L20.2957 0H10.9862C10.2017 0.0017608 9.43165 0.211743 8.75479 0.608499C8.07794 1.00525 7.51853 1.57456 7.13371 2.25827L0.581362 13.8193C0.20038 14.4866 0 15.2417 0 16.0101C0 16.7785 0.20038 17.5337 0.581362 18.201Z" fill="url(#paint5_linear_10997_308)"/>
<path opacity="0.51" d="M20.2954 0L17.4844 4.89067L18.0068 5.72319L20.2954 0Z" fill="url(#paint6_linear_10997_308)"/>
<path d="M117.922 24.2687V8.49456H121.589V24.2687H117.922ZM117.464 4.63865C117.464 3.26347 118.354 2.34668 119.756 2.34668C121.185 2.34668 122.048 3.26347 122.048 4.63865C122.048 6.01384 121.185 6.90366 119.756 6.90366C118.273 6.90366 117.464 6.01384 117.464 4.63865Z" fill="black"/>
<path d="M107.087 24.5932C103.285 24.5932 99.3213 21.5732 99.3213 16.396C99.3213 11.1649 103.15 8.17188 107.141 8.17188C109.217 8.17188 111.051 9.00777 112.21 10.383V8.49545H115.85V24.2696H112.21V22.2203C111.051 23.7034 109.163 24.5932 107.087 24.5932ZM107.68 21.2496C110.404 21.2496 112.399 19.0655 112.399 16.3421C112.399 13.6456 110.404 11.4885 107.68 11.4885C104.984 11.4885 102.908 13.6187 102.908 16.3421C102.908 19.0925 104.984 21.2496 107.68 21.2496Z" fill="black"/>
<path d="M93.793 22.4103C93.793 21.089 94.6289 20.1992 96.0041 20.1992C97.3792 20.1992 98.1882 21.089 98.1882 22.4103C98.1882 23.7046 97.3523 24.5944 95.9771 24.5944C94.6019 24.5944 93.793 23.7046 93.793 22.4103Z" fill="black"/>
<path d="M84.6367 24.5932C79.6752 24.5932 76.3047 20.98 76.3047 16.423C76.3047 11.8121 79.891 8.17188 84.5019 8.17188C89.1937 8.17188 92.6181 11.6233 92.6181 16.2882V17.6633H79.7831C80.2954 19.9014 82.0481 21.3844 84.6367 21.3844C86.686 21.3844 88.2499 20.3059 89.0049 18.6071L91.998 20.3328C90.6228 22.8944 88.196 24.5932 84.6367 24.5932ZM84.5019 11.3806C82.3177 11.3806 80.619 12.6749 79.9718 14.6164H88.924C88.3847 12.4862 86.7669 11.3806 84.5019 11.3806Z" fill="black"/>
<path d="M67.0912 24.2664L61.0781 8.49219H64.8801L68.9517 19.6015L72.9425 8.49219H76.6905L70.7583 24.2664H67.0912Z" fill="black"/>
<path d="M45.2832 24.2641L52.2939 4.58008H55.9881L62.9988 24.2641H59.1699L57.9565 20.7587H50.3255L49.1121 24.2641H45.2832ZM54.1545 9.78421L51.5659 17.2533H56.7431L54.1545 9.78421Z" fill="black"/>
<defs>
<linearGradient id="paint0_linear_10997_308" x1="26.0246" y1="29.1553" x2="0.723406" y2="10.9427" gradientUnits="userSpaceOnUse">
<stop stop-color="#8B4FDD"/>
<stop offset="1" stop-color="#12B886"/>
</linearGradient>
<linearGradient id="paint1_linear_10997_308" x1="25.5602" y1="23.189" x2="22.6134" y2="14.6193" gradientUnits="userSpaceOnUse">
<stop stop-color="#8B4FDD"/>
<stop offset="1" stop-color="#12B886"/>
</linearGradient>
<linearGradient id="paint2_linear_10997_308" x1="26.6832" y1="30.7491" x2="15.4839" y2="15.5797" gradientUnits="userSpaceOnUse">
<stop stop-color="#8B4FDD"/>
<stop offset="1" stop-color="#12B886"/>
</linearGradient>
<linearGradient id="paint3_linear_10997_308" x1="25.5407" y1="23.1882" x2="22.5764" y2="14.5953" gradientUnits="userSpaceOnUse">
<stop stop-color="#8B4FDD"/>
<stop offset="1" stop-color="#12B886"/>
</linearGradient>
<linearGradient id="paint4_linear_10997_308" x1="32.3754" y1="23.9531" x2="13.0844" y2="12.4421" gradientUnits="userSpaceOnUse">
<stop stop-color="#8B4FDD"/>
<stop offset="1" stop-color="#12B886"/>
</linearGradient>
<linearGradient id="paint5_linear_10997_308" x1="17.7068" y1="23.9531" x2="-1.58843" y2="12.4343" gradientUnits="userSpaceOnUse">
<stop stop-color="#8B4FDD"/>
<stop offset="1" stop-color="#12B886"/>
</linearGradient>
<linearGradient id="paint6_linear_10997_308" x1="19.9368" y1="5.21441" x2="16.769" y2="4.01119" gradientUnits="userSpaceOnUse">
<stop stop-color="#8B4FDD"/>
<stop offset="1" stop-color="#12B886"/>
</linearGradient>
</defs>
</svg>
