<svg width="10" height="12" viewBox="0 0 10 12" fill="none" xmlns="http://www.w3.org/2000/svg">
<path d="M8.32667 3.90667L4.68 6L1.01333 3.90667C0.386667 3.55333 0 3.33333 0 2.17333V1C0 0.446667 0.446667 0 1 0H8.33333C8.88667 0 9.33333 0.446667 9.33333 1V2.17333C9.33333 3.33333 8.94667 3.55333 8.32667 3.90667ZM0 9.82667V11C0 11.5533 0.446667 12 1 12H8.33333C8.88667 12 9.33333 11.5533 9.33333 11V9.82667C9.33333 8.66667 8.94667 8.44667 8.32667 8.09333L4.68 6L1.01333 8.09333C0.386667 8.44667 0 8.66667 0 9.82667Z" fill="#FBBC04"/>
</svg>
